<svg version="1.2" xmlns="http://www.w3.org/2000/svg" viewBox="0 0 385 303" width="385" height="303"><style>.a{fill:#f2f2f2}.b{fill:#fff}.c{fill:#ffb6b6}.d{fill:#2f2e41}.e{fill:#6c63ff}.f{fill:#a0616a}.g{fill:#3f3d56}.h{fill:#e6e6e6}</style><path class="a" d="m384.5 562.5v12.3c0 4.3-10.2 7.7-22.7 7.7h-647.6c-5.9 0-11.3-0.7-15.3-2q-0.7-0.2-1.3-0.4c-3.8-1.4-6.1-3.2-6.1-5.3v-12.3c197.1-11.1 439.6-7.3 693 0z"/><path class="b" d="m384.5 576.1v12.3c0 4.3-10.2 7.7-22.7 7.7h-647.6c-5.9 0-11.3-0.7-15.3-2q-0.7-0.2-1.3-0.4c-3.8-1.4-6.1-3.2-6.1-5.3v-12.3c181.4-8.3 428.4-5.6 693 0z"/><path class="a" d="m384.5 585.9v12.4c0 4.2-10.2 7.7-22.7 7.7h-647.6c-5.9 0-11.3-0.8-15.3-2q-0.7-0.2-1.3-0.4c-3.8-1.4-6.1-3.3-6.1-5.3v-12.4c196.3-6.9 435.5-5.2 693 0z"/><path class="a" d="m332.8 555c1 0.1 1.5-1.1 0.8-1.8l-0.1-0.3v-0.1c1-2.3 4.4-2.3 5.3 0 0.9 2.1 2 4.2 2.3 6.4q0.2 1.5-0.2 3c2.1-4.5 3.1-9.3 3.1-14.2q0-1.9-0.2-3.7-0.1-1.5-0.4-3c-1.1-5.3-3.5-10.4-6.9-14.7-1.6-0.9-3-2.3-3.8-3.9-0.3-0.6-0.5-1.3-0.7-2 0.2 0.1 0.7-2.8 0.6-3 0.3-0.3 0.7-0.5 1-0.9 1.4-1.9 3.4-1.6 4.4 1 2.2 1.1 2.2 2.9 0.8 4.6-0.8 1.2-0.9 2.7-1.7 3.9q0.2 0.1 0.3 0.2 2.1 2.7 3.6 5.8c-0.3-2.3 0.1-5 0.9-6.7 0.8-2 2.3-3.7 3.7-5.4 1.7-2.1 5-1.2 5.3 1.4v0.1q-0.3 0.2-0.6 0.4c-1.1 0.7-0.7 2.4 0.6 2.6q-0.1 1.1-0.3 2.2c1.7 6.8-2.1 9.2-7.5 9.3q-0.2 0.1-0.3 0.2 0.8 2.3 1.3 4.8 0.4 2.1 0.6 4.2 0.2 2.8 0 5.5v-0.1c0.4-2 1.4-3.8 3-5.1 2.3-2 5.7-2.7 8.2-4.2 1.2-0.7 2.8 0.2 2.5 1.6v0.1q-0.5 0.2-1.1 0.5-0.3 0.2-0.6 0.4c-1.1 0.7-0.7 2.4 0.6 2.6h0.1q-0.9 2.4-2.7 4.2c-1 5.9-5.8 6.5-10.8 4.8q-0.8 3.6-2.4 6.9h-8.5q-0.1-0.1-0.1-0.2 1.2 0 2.4-0.2-1-1.1-1.9-2.3-0.1 0-0.1-0.1-0.5-0.6-0.9-1.1-0.1-1.9 0.4-3.7z"/><path class="a" d="m-46.2 546c1 0.1 1.5-1.1 0.8-1.8l-0.1-0.3v-0.1c1-2.3 4.4-2.3 5.3 0 0.9 2.1 2 4.2 2.3 6.4q0.2 1.5-0.2 3c2.1-4.5 3.1-9.3 3.1-14.2q0-1.9-0.2-3.7-0.1-1.5-0.4-3c-1.1-5.3-3.5-10.4-6.9-14.7-1.6-0.9-3-2.3-3.8-3.9-0.3-0.6-0.5-1.3-0.7-2 0.2 0.1 0.7-2.8 0.6-3 0.3-0.3 0.7-0.5 1-0.9 1.4-1.9 3.4-1.6 4.4 1 2.2 1.1 2.2 2.9 0.8 4.6-0.8 1.2-0.9 2.7-1.7 3.9q0.2 0.1 0.3 0.2 2.1 2.7 3.6 5.8c-0.3-2.3 0.1-5 0.9-6.7 0.8-2 2.3-3.7 3.7-5.4 1.7-2.1 5-1.2 5.3 1.4v0.1q-0.3 0.2-0.6 0.4c-1.1 0.7-0.7 2.4 0.6 2.6q-0.1 1.1-0.3 2.2c1.7 6.8-2.1 9.2-7.5 9.3q-0.2 0.1-0.3 0.2 0.8 2.3 1.3 4.8 0.4 2.1 0.6 4.2 0.2 2.8 0 5.5v-0.1c0.4-2 1.4-3.8 3-5.1 2.3-2 5.7-2.7 8.2-4.2 1.2-0.7 2.8 0.2 2.5 1.6v0.1q-0.5 0.2-1.1 0.5-0.3 0.2-0.6 0.4c-1.1 0.7-0.7 2.4 0.6 2.6h0.1q-0.9 2.4-2.7 4.2c-1 5.9-5.8 6.5-10.8 4.8q-0.8 3.6-2.4 6.9h-8.5q-0.1-0.1-0.1-0.2 1.2 0 2.4-0.2-1-1.1-1.9-2.3-0.1 0-0.1-0.1-0.5-0.6-0.9-1.1-0.1-1.9 0.4-3.7z"/><path class="c" d="m243 556h-5.2l-2.6-20.4h7.8z"/><path class="d" d="m243.2 561.5h-16.2v-0.3c0-3.4 2.8-6.3 6.3-6.3l3-2.2 5.5 2.2h1.4z"/><path class="c" d="m311.3 527.1l-3.4 4-17.1-11.2 5-6z"/><path class="d" d="m315.6 530.5l-10.4 12.3-0.2-0.1c-2.6-2.2-3-6.2-0.7-8.9l0.2-3.7 5.3-2.8 0.9-1z"/><path class="d" d="m268.7 406.5l11.7 23.4-2.8 47.6-3.5 7.2 2.6 8.5 28.5 24.1-8.6 12.3-36.9-32.1-8-40.5-9 41.5 3.4 48.5h-10.9l-11.7-52.2 4.3-46.3-1.1-5.8 1.8-3.1-0.7-4.4 1.6-6.4 11.1-19z"/><path class="e" d="m238.2 421.9c-3.9-0.9-7.1-6.9-9.5-14.3-1.1-3.1-2-6.4-2.8-9.7-2.6-10.6-3.8-20.7-3.8-20.7l2.5-23.5 7-3.7 4.2-7.7 10.2-1.2 4.8 5.9 6 1.2c0 0 17.6 43.8 18.8 44.3 1.1 0.4 1.4 2.4-0.6 6-1.9 3.6-4 9-2.3 9.8 1.8 0.9 4.2 8.6 2.3 14.9-1.9 6.3-19.7 0.7-19.7 0.7 0 0-6.2 0.6-17.1-2z"/><path class="c" d="m194.5 382.7l-3.6 0.7-0.8 0.1-1.4 0.3-28 5.2c-1.5 0.9-3.4 0.8-4.7-0.4-1.5-1.4-1.6-3.8-0.2-5.3 1.5-1.5 3.9-1.6 5.4-0.2q0.3 0.2 0.4 0.4l0.8-0.2 2.4-0.8 1.8-0.6 3.5-1.1 1.4-0.5 4.5-1.4 4.3-1.5 5.3-1.7 4-1.3 0.8 1.4z"/><path class="e" d="m201.2 383.8c-0.8 0.1-1.3 0.2-1.5 0.1-1.5-0.3 0.1-1.3-3.2 0.1-2.7 1.1-2.9-0.9-3.3 0-0.7 1.4-1.6-0.1-2.3-0.6-0.3-0.3-0.6-0.3-0.8 0.1q-0.2 0.3-0.2 0.7c-0.2 0.9-0.7 0.5-1.2-0.4-0.9-1.6-2-4.8-2.7-6.8-0.2-0.5-0.3-1-0.4-1.3q-0.1-0.3-0.1-0.3c0 0 0.2-0.6 1.2-1.1 0.7-0.4 1.8-0.7 3.6-0.8 1 0 1.9 0.2 2.5 0.3 0.4 0 0.7 0 0.9-0.1h0.1q0.3-0.1 0.6-0.9c0.3-0.9 1.5-0.8 2.7-0.5 1.1 0.3 2.3 0.7 2.6 0.6 0.5-0.1 13.2-11.3 21.3-18.5 3.7-3.3 9.3-3.1 12.7 0.6l3.5 3.6c0 0 2.2 1.5 2.6 4.3 0.2 1.1 0 2.5-0.8 4.1-0.7 1.4-1.8 3-3.7 4.7-8 7.4-28.4 11.5-34.1 12.1z"/><path class="c" d="m280.4 386.4l1.4 3.4 0.3 0.8 0.5 1.3 10.3 26.6c1.3 1.2 1.5 3.2 0.6 4.7-1.1 1.7-3.4 2.2-5.1 1.1q-0.1 0-0.1 0c-1.8-1.1-2.3-3.5-1.2-5.3q0.1-0.2 0.3-0.5l-0.4-0.7-1.2-2.2-0.9-1.6-1.8-3.3-0.7-1.3-2.3-4.1-2.2-4-2.6-4.8-2.1-3.7 1.2-1.1z"/><path class="e" d="m280.3 379.7c0.2 0.7 0.3 1.2 0.3 1.4 0 1.6-1.3 0.1 0.7 3.1 1.6 2.4-0.3 3.1 0.6 3.3 1.5 0.3 0.3 1.5-0.1 2.3-0.2 0.4-0.2 0.7 0.3 0.8q0.2 0.1 0.7 0.1c0.9 0 0.6 0.5-0.2 1.2-1.4 1.2-4.4 2.9-6.2 3.9-0.5 0.3-0.9 0.6-1.1 0.7q-0.3 0.2-0.4 0.2c0 0-0.6-0.1-1.3-1-0.5-0.7-1-1.7-1.4-3.4-0.3-1-0.2-1.9-0.2-2.5q0-0.6-0.3-0.9v-0.1c-0.1-0.2-0.5-0.4-1-0.4-1-0.1-1.1-1.3-1-2.6 0.1-1.1 0.3-2.3 0.1-2.6-0.3-0.7-11.9-12.3-11.9-12.3l-9.2-21.9c0 0 1-2.4 3.7-3.3 1.1-0.4 2.5-0.5 4.2 0 1.5 0.4 3.3 1.2 5.3 2.7 8.8 6.5 16.7 25.7 18.4 31.3z"/><path class="c" d="m237.6 339.7c-6.8 0-12.3-5.4-12.3-12.2 0-6.8 5.5-12.3 12.3-12.3 6.8 0 12.3 5.5 12.3 12.3 0 6.8-5.5 12.2-12.3 12.2z"/><path class="d" d="m248 337.2c0 0-4 1.6-6.1 1.9 1-1.6 2.5-4.4 3.5-6 0.5-0.8 1-1.6 1.3-2.6 0.2-0.9 0.1-2-0.5-2.7-0.7-0.7-1.7-1-2.6-0.6-0.9 0.4-1.4 1.3-1.4 2.2-0.7-0.2-0.9-1.3-0.8-2.1 0.2-0.8 0.5-1.6 0.3-2.4-0.2-0.8-1-1.3-1.7-1.5-0.8-0.2-1.6-0.1-2.4 0-2.3 0.5-4.4 1.3-6.7 1.3q-0.7 0.1-1.4-0.1c0.4-1.2 0.3-2.6-0.1-3.8-0.5 1.1-1.2 2.2-2.1 3.1-0.9-0.6-1.6-1.4-2-2.4-0.3-1.1-0.1-2.4 0.4-3.5q0.3-0.8 0.8-1.4 0.5 0 1-0.1 1.1-0.1 2.1-0.6-1-0.3-1.9-0.8 0 0 0-0.1c0.6-0.6 1.3-1.3 2.2-1.7 0.8-0.3 1.9 0 2.4 0.8 2.3-2 5.5-3.1 8.6-2.8 3.1 0.3 6 1.8 8 4.2q-1 0.6-1.6 1.5 1.2-0.2 2.4-0.2c0.4 0.8 0.5 1.6 0.1 2.4 0.8 0.7 2.3 1.9 1.3 2.1 1.6 2.6 2.1 5.7 1.5 8.5-0.5 2.9-2.2 5.6-4.6 7.4z"/><path class="f" d="m82.4 555.3v-25.2h9.7l-3.1 25.2z"/><path class="d" d="m82.2 554.1h1.8l6.8-2.8 3.7 2.8c4.3 0 7.8 3.5 7.8 7.8v0.3h-20.1z"/><path class="f" d="m27.5 549.7l8.1-23.9 9.2 3.1-11.1 22.9z"/><path class="d" d="m27.7 548.4l1.7 0.6 7.3-0.4 2.6 3.8c4.1 1.4 6.3 5.8 4.9 9.9l-0.1 0.2-19-6.4z"/><path class="d" d="m98.7 418c0 0 6.3 19.3 5.1 21.9-1.1 2.5-3.1 0.5-1.1 2.5 2 2 3.7-0.1 1.8 3.3-1.8 3.3-4.6 31-5.9 32.3-1.2 1.4-2.9 1.4-1.4 2.7 1.5 1.3 3.5-1.3 1.5 1.3-2 2.7-7.2 63.5-7.2 63.5h-10.3c0 0-2.5-2.9-1.1-4.8 1.5-1.9-0.1-2.7 0-4 0.1-1.2-0.3-4-0.4-5.3-0.1-1.2-1.8-31.2 2.3-48.5l-7.6-33-9.2 39.8c0 0-14.7 29.5-19 40.3 0 0 3.4 2.8 1.9 4.4-1.5 1.7-2.8 0.4-1.5 1.7 1.3 1.3-2 5.9-2 5.9l-15.2-0.6 16.7-58.5c0 0-1.1-6.6 0-7.7 1-1.1 1 2.9 1-1.1v-5.3c0 0 0.6-32.4 0.7-34.4 0.1-1.9 8-15.7 8-15.7z"/><path class="g" d="m98.5 351.4v38c0 0-2 5.3-1.9 11.5 0 6.4 1.4 13.9 1.4 17.1q0 0.9-0.1 1.3c-6.3 18.3-39.6 1.7-42.7 0.1q-0.2-0.1-0.2-0.1l0.7-20.4-0.1-5.9-0.8-40.4 0.7-0.5 6.1-4.9 0.6-0.5 1.8 2.7 16.4-1.1 6.3-1.7 1.9 0.7 8.8 3.6z"/><path class="f" d="m150.9 404.6c1.1 2 0.3 4.4-1.7 5.4-2 1.1-4.4 0.3-5.4-1.7q-0.3-0.5-0.4-1.1l-10.1-7.8 5.1-4.7 9.3 7.7c1.3 0.2 2.6 0.9 3.2 2.2z"/><path class="g" d="m102.6 351.1c11.6 9.7 22 19.3 25.9 28.2 0 0 10.7 9.6 9.5 11.9-1.2 2.3 0.5 0.8 2.3 1.2 1.8 0.4 0.9 1.5 0.9 3.1-0.1 1.6 6.2 5 6.2 5-3.8 1.4-8.7 7-8.7 7 0 0-4.7-4.9-5.5-5.5-0.9-0.5-1.3-1.2-4-2.2-2.7-1-1.6-1.7-1.7-3.6-0.2-2-0.9-0.6-4.7-2.4-3.7-1.9-0.7-1.2-1.7-3.7-1-2.5-0.2-2.4-4.1-3.2-5-1-24.7-20.5-26.3-25-1.3-3.4-2.7-8.3-0.5-11.3 3.8-2.6 8.8-2.4 12.4 0.5z"/><path class="f" d="m51.7 431c-0.8 2.1-3.1 3.2-5.2 2.4-2.1-0.8-3.2-3.1-2.4-5.2q0.2-0.6 0.5-1l-1-12.8 7 0.7 0.5 12.1c0.8 1 1 2.4 0.6 3.8z"/><path class="g" d="m55.4 397.4c0 0 0.1 14.4-2.4 15-2.5 0.7-0.2 0.9 0.7 2.5 0.9 1.7-0.5 1.8-1.7 2.8-1.3 1 0.5 8 0.5 8-3.7-1.9-11.1-1.8-11.1-1.8 0 0 0.5-6.7 0.4-7.7-0.2-1 0-1.9-1.1-4.5-1.1-2.6 0.2-2.3 1.5-3.7 1.4-1.5-0.1-1-1.3-5-1.2-4.1 0.4-1.3 1.5-3.8 1.2-2.4 1.2-1.5-0.4-5.2-1.7-3.9 5.3-32.4 7.5-36.6 1.7-3.3 5-5.5 8.6-5.9h0.2z"/><path class="f" d="m76.2 336.1q-0.4 0.1-0.9 0.1-1.3 0.3-2.7 0.2c-2.7-0.2-5.2-1.1-7.2-2.8-2.2-1.7-3.8-4.2-4.5-7.1-1.6-6.8 2.7-13.7 9.5-15.3 6.8-1.6 13.6 2.5 15.3 9.2q0 0.2 0.1 0.3c1.6 6.9-2.7 13.8-9.6 15.4z"/><path class="d" d="m64.4 334.6c-1.7-1.4-1.9-4.1-3.4-5.7-2.6-2.8-3.8-5.8-2.4-9.2 1.1-2.9 0.9-6.5 3.4-8.4-1.2-0.4-1.5-1.3-0.4-1.4 0.7 0 3.5 1.4 2.2-0.3-1.4-1.8 1.1-1.1 1-1.8-0.2-0.7-1.3-1.1-1.7-0.6 1.5-1.7 4.7-1.3 5.8 0.7 1.5-2.2 3.1-3.8 5.4-2.3 2.2 1.3 2.2 3.1 4.6 2.7 1.1-0.2 1.3 1.9 2 2.8 0.8 0.8 1.9 1.5 3.1 1.3 1.1-0.3 2-1.7 1.3-2.6l2.7 6.1 1.1-1.4c1.7 1.2 1.1 4.1-0.6 5.2-1.7 1-5-1.5-5.9 0.3-1.5 2.9-5 1.4-7.3-0.6-2.9-2.4-6.4 5-5 8.5-1.4-1.4-4.1-0.2-4.8 1.7-0.8 1.8-0.2 3.9 0.3 5.9z"/><path class="h" d="m88.8 347.3l-0.5 0.6-1.2 1.5-4.4 13.1-20.9-15.3 0.5-0.5 3.2-6.7 16.4-1.2 4.9 7.8z"/><path class="a" d="m247.5 282c-37.8 19.1-54.2 2.7-70 27.2v247.8h-57l39.3-240.3c-17.7-77-25.9-16.9-52.3-16.7-10 0.1-64-83-61.5-94.5-14.4-5-24.7-14.7-29-29.1-6.6-22.2 6.6-71.2 28.5-110.4 8.1 4.5 17.2 7.2 26.4 7.9-7.3-7.1-12.4-16.2-15.2-26 20.4-29.4 45.6-47.6 69-33.1 55.8 34.6 143.3-45.4 156.6-1 2.8 9.5 2.8 20.4 0.3 31.9 7.7 2.7 14.2 6.7 19.3 12.1 8 9.7 1.9 28.7-7.4 44.1 5.4-1.8 11.5-2.3 18.5-1.5-1.7 12.4-6.6 26-14.1 39.8 15 18.9 64.4 83.3-51.4 141.8z"/><path class="c" d="m-179 463.4c-0.1-2.3 1.7-4.4 4-4.5 2.4-0.2 4.4 1.6 4.5 4 0.1 1-0.2 1.9-0.7 2.7 0.2 0.6 3.8 21.4 3.8 21.4l-8.4-2.3-0.9-17.8c-1.3-0.7-2.2-2-2.3-3.5z"/><path class="e" d="m-207.2 506.7l-0.2 0.4c-0.6 0.2-0.5 0 0.2-0.4z"/><path class="e" d="m-170.9 502.9c-4.6-1.2-9.3-1.6-13.8-1.4-4.7 0.2-9.2 1-12.9 1.9-0.7-2.4-1.4-4.9-1.8-7.2l5-3.3 5.6-2 11.7-4.1-0.2-6.3 1.2-0.6 7-3.1 0.1-0.1 5 13.5c1.9 5.4-1.3 11.3-6.9 12.7z"/><path class="a" d="m-89.1 237.9c9.3 18.1 11.6 37.3 4.9 54.7-1.3 24-57.3 44-112.7 51.3-14.5 71.5-10.8 145 6.1 220h-48.8c-13.7-62.2 1.8-137.5 30.3-218.5-49.9 4.9-95.7-1-96-24.3 3.6-26.8-14.4-30.7-25.1-52.2-6-17.5 5.7-8.9 17.6-8.2-7.2-7.2-12.4-16.2-15.2-26 7.3-36 10.9-67 53.2-47-38-27.2 7.8-77.4 37.5-57.2 7.4 5.1 33.8 16.5 33.8 16.5 0 0 95.4-61.3 70.7 19.3 9-9 19.7-16.2 31.3-21.3-6.1 18.3 21.3 17.8 23.3 36.9 4.6 15.6 0.3 35.4-10.9 56z"/><path class="c" d="m-168.5 507.7c0 8.2 2.8 19.1 2.8 19.1 0 0-26.1 2.4-27.3 1.2-1.1-1.2-1.2-8-1.2-8l-1.7-7.3z"/><path class="c" d="m-95.5 579.4l-12.5-17.8 6.6-4.8 10.4 19.3z"/><path class="d" d="m-77.8 571.8c-0.1 0.5-0.3 1-0.7 1.4l-4.2 3.9-1.5 1.5-2.3 2.2-4.1-1.6 2.2 3.4-3 2.8-8.8-10.9 0.7-0.8 1-0.9 3.6-3.9 1-1.1 2.8 2.8 1.5-0.2 7.1-1.1 1.9-0.3q0.6-0.1 1.2 0.1 0.5 0.2 0.9 0.6 0.2 0.2 0.3 0.3c0.4 0.6 0.5 1.2 0.4 1.8z"/><path class="d" d="m-98.2 561.2l-8.1 3.6c-8.4-8.9-16.8-20.3-22.1-38.9-12.1 15.6-22.7 24.5-37.2 32.3-4.9 2.6-22.6 3.6-25.3-1.4q-0.2-0.3-0.4-0.7c-2.5-5.6-0.3-20.1-1.7-27.4 5.2-9.6 18-1.9 26.7-5.6l9.7 4.2 18.1-21.5c3.7-4.3 10.2-4.8 14.6-1.1q0.3 0.3 0.6 0.7c3.7 6.1 7.2 12.2 10.3 18.1 1.1 1.9 4.3 4.5 3 5.6-1.3 1.2 2 3.9 2.9 5.8 5.7 11.7 8.1 17.7 8.9 26.3z"/><path class="e" d="m-199.6 466.5l10.7-0.6c0.9-0.1 1.8 0.5 2.1 1.3l3.1 7.4 12.6 10.4c0 0 5 6.4 5 14.6 0 8.2-0.2 23.5-0.2 23.5 0 0-5.3-6.6-9.8-3.9-0.8 0.5-1.1 1.4-1.9 1.9-0.4 0.3-1.3 0-1.7 0.3-6.2 3.7-12.4 6.4-13.3 6.6-3.2 0.7-4.2-1.8-2-5.3 0.7-1.1-0.6-2.2-0.6-2.2-1.6-0.9-2.2-2.2-1.1-4.1l-8.7-32c-1.1-3.9-0.4-8 1.9-11.3 0.7-1 1.4-1.7 2.1-1.8 1.5-0.3 0.7-3.7 1.8-4.8z"/><path class="c" d="m-70.8 581.9l-20.2-8.1 3-7.5 19.2 10.4z"/><path class="d" d="m-77.4 570.7l-2.4 9.2c-16.4-4.3-33.2-14.3-50.3-27-18.9 5.8-36.8 9.3-53.1 7.4-5.5-0.7-9.6-5.8-9-11.5q0-0.4 0.1-0.7c1.1-6.1 10.6-11.3 13.7-18.2l20.1 4.8 1.5 3.9 4.5-1.2 3.9-1 4.4-1.2 14.3-3.8c5.5-1.4 11.1 2 12.5 7.5q0.1 0.5 0.2 0.9l19.9 15.5c0 0 1.8 4.2 3.1 2.5 1.4-1.7 4 3 4 3z"/><path class="d" d="m-54.6 572l-4.1 10.2-4.3 0.3 3.4 2.2-1.6 3.8-12.5-6.2 0.5-1.4 1.8-5.6 0.6-1.8 3.7 1.5 8.8-5.9c0.7-0.5 1.6-0.6 2.3-0.3 1.3 0.5 1.9 2 1.4 3.2z"/><path class="d" d="m-211.3 445.6c-0.3 1.2-0.6 2.5-1.4 3.5-0.8 1-2.3 1.5-3.4 0.8-1.3-0.8-1.2-2.8-1-4.3l0.9-4.9c0.1-0.9 0.3-1.9 0.7-2.7 0.5-0.9 1.2-1.6 2.1-1.8 1-0.2 2.1 0.3 2.7 1.1 0.7 0.7 1 1.7 1.2 2.7 0.4 2.6-0.3 5.4-1.9 7.5z"/><path class="d" d="m-215.1 447.7c-2.1-0.3-2-0.6-3.5 0.8-2 1.8-1.2 5.2 0.4 7.4 1.7 2.2 4 3.9 4.8 6.5 0.8 2.2 0.3 4.7-1 6.6-0.7 1-1.6 1.8-2.6 2.4q-1-0.9-1.5-2.1 0.1 1.3 0.5 2.6-1 0.5-2.2 0.7c-1.9 0.4-3.9 0.2-5.7-0.7-1.7-1-3-2.7-3.2-4.6 2.8 0.5 7.1-1.5 6.5-4.3-0.4-2.2-1.9-13.7-2.2-16.4-0.4-2.8 0.1-5.9 2.1-7.9 2-2 5.7-2.4 7.5-0.2z"/><path class="d" d="m-188.4 447.7c0 6.7-5.4 12.2-12.2 12.2-6.7 0-13.1-7.8-13.1-14.6 0-6.7 6.4-9.8 13.1-9.8 6.8 0 12.2 5.4 12.2 12.2z"/><path class="c" d="m-196.9 462.5c-6.4 0-11.7-5.2-11.7-11.6 0-6.4 5.3-11.6 11.7-11.6 6.4 0 11.6 5.2 11.6 11.6 0 6.4-5.2 11.6-11.6 11.6z"/><path class="d" d="m-182.3 449.1c-3.4 0.9-6.9 1.9-8.3 0-0.2-1.3-0.7-2.5-1.4-3.6q-0.2 1.8-0.9 3.6c-1.5 0.3-3.6 0.3-3.6 0.3-0.5 0.8-2.7 2.2-2.8 3.2q-0.3-0.1-0.6-0.3c-0.2 0-0.5-0.1-0.7 0-0.2 0.1-0.3 0.3-0.3 0.5q0 0.2 0 0.5c0.1 0.7 0.2 1.4 0.6 2 0.3 0.3 0.7 0.7 1.2 0.7 0.5 2.8 1.6 6.5 1.6 6.5-11.8 0.4-15.3-8.2-15.3-15.8l1.4-2.8h4.7v-6.1h13.2c6.2 0 11.2 5.1 11.2 11.3z"/><path class="c" d="m-160.1 539.3c-2.4-0.2-4.2-2.2-4.1-4.6q0-0.4 0.1-0.7l-27.8-20.9 7.3-3.2 26 20.9c1.9 0.6 3.2 2.4 3.1 4.5-0.2 2.4-2.3 4.2-4.6 4z"/><path class="e" d="m-165.9 523.5l-1.3 0.4-7 2.4q0 0-0.4-0.2c-2.8-1.4-18.5-9.2-19.5-11.9-0.4-1.3-2-5.8-3.5-10.8-0.7-2.4-1.4-4.9-1.8-7.2-0.8-3.8-1.1-7.3-0.3-9.3 2.3-5.9 7.6-4.4 7.6-4.4l3.3 8.4 4.1 10.6 3.4 8.6c4.3 1.1 9.7 6.6 15.4 13.4z"/><path fill-rule="evenodd" class="g" d="m-171.5 459.2q0 0.5-0.2 0.9c-0.3 0.7-1 1.2-1.9 1.2q-0.5 0.1-0.9-0.1c0.9 2.8 0.6 5.7-0.8 8.7-0.2 0.5-0.7 0.9-1.2 1q-0.1 0-0.1 0l-5.8 0.1c-0.6 0-1.1-0.4-1.3-0.9-1.9-3.5-2.1-7.3-1.5-11.3-0.2-0.4-0.1-0.8 0.1-1.1q0-0.2 0.1-0.3 0.3-0.3 0.8-0.4 0.1 0 0.2 0l8.9-0.3q0.2 0 0.4 0.1 0.4 0.1 0.6 0.4 0.2-0.1 0.4-0.1c1.2 0 2.1 0.9 2.2 2.1zm-0.7 0.5q0.1-0.2 0.1-0.5c-0.1-0.8-0.7-1.5-1.6-1.5q0 0-0.1 0.1 0.1 0.3 0 0.7l-0.1 0.5-0.4 1.6q0.3 0.1 0.7 0.1c0.7 0 1.2-0.4 1.4-1z"/><path class="e" d="m-184 457l8.9-0.3q0.2 0 0.4 0.1c-0.4 1-2.3 1.8-4.6 1.9-2.6 0.1-4.7-0.6-4.9-1.7q0.1 0 0.2 0z"/></svg>